<?xml version="1.0" standalone="no"?>
<!DOCTYPE svg PUBLIC "-//W3C//DTD SVG 20010904//EN"
 "http://www.w3.org/TR/2001/REC-SVG-20010904/DTD/svg10.dtd">
<svg version="1.0" xmlns="http://www.w3.org/2000/svg"
 width="512.000000pt" height="512.000000pt" viewBox="0 0 512.000000 512.000000"
 preserveAspectRatio="xMidYMid meet">

<g transform="translate(0.000000,512.000000) scale(0.100000,-0.100000)"
fill="currentColor" stroke="none">
<path d="M1292 5109 c-48 -14 -109 -80 -123 -131 -15 -56 -5 -177 22 -265 89
-289 335 -529 819 -802 69 -38 131 -74 139 -78 9 -6 -27 -33 -120 -90 -470
-286 -720 -553 -822 -879 -75 -236 -55 -521 51 -746 159 -341 475 -613 1112
-960 96 -52 261 -141 365 -198 105 -57 210 -116 235 -131 l45 -28 -282 -3
-281 -3 -43 -30 c-72 -51 -102 -137 -79 -222 17 -58 71 -114 126 -131 30 -9
176 -12 543 -12 l502 0 25 -54 c14 -32 29 -88 34 -136 11 -95 34 -139 93 -178
34 -22 52 -27 106 -27 79 0 128 25 169 88 25 37 27 49 26 136 0 70 -6 116 -23
171 -91 297 -321 524 -821 809 -80 46 -146 84 -148 86 -1 1 51 34 116 73 545
326 819 659 873 1058 50 374 -110 743 -449 1041 -204 178 -419 314 -929 592
-191 104 -374 204 -406 222 l-58 34 359 5 359 5 40 27 c62 41 88 90 88 168 0
78 -26 127 -88 168 l-41 27 -603 3 -604 3 -25 53 c-14 32 -29 88 -34 136 -11
94 -34 139 -90 176 -43 29 -125 39 -178 23z m1407 -1576 c216 -123 395 -244
516 -347 l30 -25 -674 -1 c-567 0 -672 2 -662 14 16 19 221 163 312 220 83 50
351 205 358 206 2 0 56 -30 120 -67z m842 -820 c18 -61 18 -232 0 -300 l-13
-53 -969 0 -968 0 -11 38 c-21 73 -24 204 -6 285 l17 77 968 0 968 0 14 -47z
m-326 -763 c-22 -36 -344 -246 -572 -374 l-103 -57 -142 81 c-209 120 -416
262 -512 351 -6 5 276 9 663 9 427 0 670 -3 666 -10z"/>
<path d="M3698 5111 c-83 -27 -125 -88 -138 -201 -17 -149 -89 -258 -265 -405
-124 -104 -148 -139 -148 -221 0 -126 115 -215 247 -190 86 16 361 275 448
423 26 43 61 122 79 174 27 79 32 110 33 194 1 89 -2 104 -23 138 -34 55 -88
87 -152 92 -30 3 -66 1 -81 -4z"/>
<path d="M1701 1019 c-44 -18 -186 -136 -278 -232 -111 -117 -180 -225 -223
-355 -29 -83 -33 -112 -34 -197 -1 -89 2 -104 23 -138 13 -21 42 -50 64 -65
34 -23 52 -27 107 -27 55 0 73 4 107 27 59 39 82 83 93 178 17 149 89 258 265
405 125 104 148 139 147 221 -1 79 -48 150 -119 180 -37 16 -116 17 -152 3z"/>
</g>
</svg>
